<?xml version="1.0" encoding="UTF-8"?>
<svg id="Layer_1" xmlns="http://www.w3.org/2000/svg" version="1.1" viewBox="0 0 1762.98 372.16">
  <!-- Generator: Adobe Illustrator 30.1.0, SVG Export Plug-In . SVG Version: 2.1.1 Build 136)  -->
  <defs>
    <style>
      .st0 {
        isolation: isolate;
      }
    </style>
  </defs>
  <g class="st0">
    <g id="_레이어_1">
      <path d="M502.11,274.56V65.35h151.28v24.73h-123.57v64.07h115.74v24.55h-115.74v71.2h128.43v24.67h-156.14ZM701.21,274.56V65.35h27.65v209.21h-27.65ZM837.47,274.56l-81.02-209.21h29.93l54.36,151.98c4.4,12.2,8.07,23.62,10.99,34.25,3.23-11.42,7-22.84,11.28-34.25l56.53-151.98h28.29l-81.95,209.21h-28.41,0ZM973.2,274.56V65.35h151.28v24.73h-123.57v64.07h115.74v24.55h-115.74v71.2h128.43v24.67h-156.14ZM1166.45,274.56V65.35h27.65v184.54h103.06v24.67h-130.71ZM1334.86,274.56V65.35h27.65v209.21h-27.65ZM1471.12,274.56l-81.08-209.21h29.99l54.36,151.98c4.4,12.2,8.07,23.62,10.99,34.25,3.23-11.42,7-22.84,11.28-34.25l56.53-151.98h28.23l-81.9,209.21h-28.41.01ZM1606.85,274.56V65.35h151.28v24.73h-123.57v64.07h115.74v24.55h-115.74v71.2h128.43v24.67h-156.14Z"/>
      <path d="M217.95,182.43L112.62,0h210.65s105.33,182.43,105.33,182.43h-210.65Z"/>
      <path d="M323.28,372.16h0s-210.65,0-210.65,0l105.32-182.43h210.65l-105.33,182.43Z"/>
      <path d="M210.65,186.56l-105.33,182.43L0,186.56,105.32,4.13l105.33,182.43Z"/>
    </g>
  </g>
</svg>
